<svg xmlns="http://www.w3.org/2000/svg" viewBox="0 0 800 600">
  <!-- Background -->
  <defs>
    <linearGradient id="bg" x1="0%" y1="0%" x2="100%" y2="100%">
      <stop offset="0%" style="stop-color:#7bb3f2;stop-opacity:1" />
      <stop offset="100%" style="stop-color:#5a9fd4;stop-opacity:1" />
    </linearGradient>
  </defs>
  <rect width="800" height="600" fill="url(#bg)"/>
  
  <!-- Doctor -->
  <g id="doctor">
    <!-- Doctor body -->
    <ellipse cx="600" cy="480" rx="80" ry="100" fill="#ffffff"/>
    <!-- Doctor coat -->
    <rect x="540" y="400" width="120" height="140" rx="20" fill="#ffffff" stroke="#e0e0e0" stroke-width="2"/>
    <!-- Stethoscope -->
    <circle cx="580" cy="420" r="8" fill="#4a90e2"/>
    <path d="M580 428 Q590 440 600 450" stroke="#4a90e2" stroke-width="3" fill="none"/>
    <!-- Doctor head -->
    <circle cx="600" cy="320" r="60" fill="#f4c2a1"/>
    <!-- Hair -->
    <path d="M540 300 Q600 260 660 300 Q650 290 600 280 Q550 290 540 300" fill="#2c3e50"/>
    <!-- Eyes -->
    <circle cx="585" cy="315" r="4" fill="#2c3e50"/>
    <circle cx="615" cy="315" r="4" fill="#2c3e50"/>
    <!-- Smile -->
    <path d="M590 335 Q600 345 610 335" stroke="#2c3e50" stroke-width="2" fill="none"/>
  </g>
  
  <!-- Patient -->
  <g id="patient">
    <!-- Chair -->
    <rect x="200" y="450" width="120" height="100" rx="10" fill="#e74c3c"/>
    <rect x="180" y="420" width="160" height="30" rx="15" fill="#e74c3c"/>
    <!-- Patient body -->
    <ellipse cx="260" cy="420" rx="60" ry="80" fill="#ffffff"/>
    <!-- Patient head -->
    <circle cx="260" cy="300" r="50" fill="#f4c2a1"/>
    <!-- Hair -->
    <path d="M210 280 Q260 250 310 280 Q300 270 260 260 Q220 270 210 280" fill="#2c3e50"/>
    <!-- Eyes closed -->
    <path d="M245 295 L255 295" stroke="#2c3e50" stroke-width="2"/>
    <path d="M265 295 L275 295" stroke="#2c3e50" stroke-width="2"/>
    <!-- Smile -->
    <path d="M250 315 Q260 325 270 315" stroke="#2c3e50" stroke-width="2" fill="none"/>
    <!-- Arm extended -->
    <ellipse cx="320" cy="380" rx="40" ry="15" fill="#f4c2a1"/>
  </g>
  
  <!-- Blood bag -->
  <g id="blood-bag">
    <rect x="450" y="350" width="80" height="100" rx="10" fill="#ffffff" stroke="#e0e0e0" stroke-width="2"/>
    <rect x="460" y="360" width="60" height="70" fill="#e74c3c"/>
    <rect x="485" y="345" width="10" height="15" fill="#cccccc"/>
    <!-- Tube -->
    <path d="M490 450 Q420 460 350 400" stroke="#e74c3c" stroke-width="4" fill="none"/>
  </g>
  
  <!-- Heart with cross -->
  <g id="heart-cross">
    <path d="M400 150 C380 130, 340 130, 340 170 C340 130, 300 130, 280 150 C280 190, 400 250, 400 250 C400 250, 520 190, 520 150 C500 130, 460 130, 460 170 C460 130, 420 130, 400 150" fill="#e74c3c"/>
    <!-- Cross -->
    <rect x="390" y="160" width="20" height="60" fill="#ffffff"/>
    <rect x="370" y="180" width="60" height="20" fill="#ffffff"/>
  </g>
  
  <!-- Blood drop -->
  <g id="blood-drop">
    <path d="M200 150 C200 120, 230 100, 250 130 C250 100, 200 120, 200 150 C200 180, 225 200, 225 200 C225 200, 200 180, 200 150" fill="#e74c3c"/>
  </g>
</svg>